<svg width="18" height="18" viewBox="0 0 18 18" fill="none" xmlns="http://www.w3.org/2000/svg">
<g id="Group 47">
<g id="Subtract">
<mask id="path-1-inside-1_968_10760" fill="white">
<path fill-rule="evenodd" clip-rule="evenodd" d="M9 0V17.9998C8.99991 17.9998 8.99982 17.9998 8.99972 17.9998C4.02931 17.9998 0 13.9704 0 8.99992C0 4.0294 4.02931 0 8.99972 0C8.99982 0 8.99991 0 9 0Z"/>
</mask>
<path fill-rule="evenodd" clip-rule="evenodd" d="M9 0V17.9998C8.99991 17.9998 8.99982 17.9998 8.99972 17.9998C4.02931 17.9998 0 13.9704 0 8.99992C0 4.0294 4.02931 0 8.99972 0C8.99982 0 8.99991 0 9 0Z" fill="#E8E8E8"/>
<path d="M9 17.9998V18.0872H9.08736V17.9998H9ZM9 0H9.08736V-0.0873562H9V0ZM9.08736 17.9998V0H8.91265V17.9998H9.08736ZM9 17.9125C9 17.9125 9 17.9125 9 17.9125H9H9C9 17.9125 9 17.9125 9 17.9125C9 17.9125 9 17.9125 9 17.9125H9C9 17.9125 9 17.9125 9 17.9125C9 17.9125 9 17.9125 9 17.9125C9 17.9125 9 17.9125 8.99999 17.9125H8.99999C8.99999 17.9125 8.99999 17.9125 8.99999 17.9125C8.99999 17.9125 8.99999 17.9125 8.99999 17.9125C8.99999 17.9125 8.99999 17.9125 8.99999 17.9125H8.99999C8.99999 17.9125 8.99999 17.9125 8.99999 17.9125C8.99999 17.9125 8.99999 17.9125 8.99999 17.9125C8.99999 17.9125 8.99999 17.9125 8.99999 17.9125H8.99999C8.99998 17.9125 8.99998 17.9125 8.99998 17.9125C8.99998 17.9125 8.99998 17.9125 8.99998 17.9125C8.99998 17.9125 8.99998 17.9125 8.99998 17.9125H8.99998C8.99998 17.9125 8.99998 17.9125 8.99998 17.9125C8.99998 17.9125 8.99998 17.9125 8.99998 17.9125H8.99998H8.99998C8.99998 17.9125 8.99998 17.9125 8.99998 17.9125C8.99998 17.9125 8.99998 17.9125 8.99998 17.9125H8.99998H8.99997C8.99997 17.9125 8.99997 17.9125 8.99997 17.9125C8.99997 17.9125 8.99997 17.9125 8.99997 17.9125H8.99997H8.99997C8.99997 17.9125 8.99997 17.9125 8.99997 17.9125C8.99997 17.9125 8.99997 17.9125 8.99997 17.9125H8.99997C8.99997 17.9125 8.99997 17.9125 8.99997 17.9125C8.99997 17.9125 8.99997 17.9125 8.99997 17.9125C8.99997 17.9125 8.99997 17.9125 8.99996 17.9125H8.99996C8.99996 17.9125 8.99996 17.9125 8.99996 17.9125C8.99996 17.9125 8.99996 17.9125 8.99996 17.9125C8.99996 17.9125 8.99996 17.9125 8.99996 17.9125H8.99996C8.99996 17.9125 8.99996 17.9125 8.99996 17.9125C8.99996 17.9125 8.99996 17.9125 8.99996 17.9125C8.99996 17.9125 8.99996 17.9125 8.99996 17.9125H8.99996C8.99996 17.9125 8.99996 17.9125 8.99996 17.9125C8.99996 17.9125 8.99996 17.9125 8.99995 17.9125C8.99995 17.9125 8.99995 17.9125 8.99995 17.9125H8.99995C8.99995 17.9125 8.99995 17.9125 8.99995 17.9125C8.99995 17.9125 8.99995 17.9125 8.99995 17.9125H8.99995H8.99995C8.99995 17.9125 8.99995 17.9125 8.99995 17.9125C8.99995 17.9125 8.99995 17.9125 8.99995 17.9125H8.99995H8.99994C8.99994 17.9125 8.99994 17.9125 8.99994 17.9125C8.99994 17.9125 8.99994 17.9125 8.99994 17.9125H8.99994C8.99994 17.9125 8.99994 17.9125 8.99994 17.9125C8.99994 17.9125 8.99994 17.9125 8.99994 17.9125C8.99994 17.9125 8.99994 17.9125 8.99994 17.9125H8.99994C8.99994 17.9125 8.99994 17.9125 8.99994 17.9125C8.99994 17.9125 8.99994 17.9125 8.99994 17.9125C8.99994 17.9125 8.99994 17.9125 8.99994 17.9125H8.99993C8.99993 17.9125 8.99993 17.9125 8.99993 17.9125C8.99993 17.9125 8.99993 17.9125 8.99993 17.9125C8.99993 17.9125 8.99993 17.9125 8.99993 17.9125H8.99993C8.99993 17.9125 8.99993 17.9125 8.99993 17.9125C8.99993 17.9125 8.99993 17.9125 8.99993 17.9125C8.99993 17.9125 8.99993 17.9125 8.99993 17.9125H8.99993C8.99993 17.9125 8.99993 17.9125 8.99993 17.9125C8.99993 17.9125 8.99993 17.9125 8.99992 17.9125C8.99992 17.9125 8.99992 17.9125 8.99992 17.9125H8.99992C8.99992 17.9125 8.99992 17.9125 8.99992 17.9125C8.99992 17.9125 8.99992 17.9125 8.99992 17.9125H8.99992H8.99992C8.99992 17.9125 8.99992 17.9125 8.99992 17.9125C8.99992 17.9125 8.99992 17.9125 8.99992 17.9125H8.99992H8.99992C8.99991 17.9125 8.99991 17.9125 8.99991 17.9125C8.99991 17.9125 8.99991 17.9125 8.99991 17.9125H8.99991C8.99991 17.9125 8.99991 17.9125 8.99991 17.9125C8.99991 17.9125 8.99991 17.9125 8.99991 17.9125C8.99991 17.9125 8.99991 17.9125 8.99991 17.9125H8.99991C8.99991 17.9125 8.99991 17.9125 8.99991 17.9125C8.99991 17.9125 8.99991 17.9125 8.99991 17.9125C8.99991 17.9125 8.99991 17.9125 8.99991 17.9125H8.9999C8.9999 17.9125 8.9999 17.9125 8.9999 17.9125C8.9999 17.9125 8.9999 17.9125 8.9999 17.9125C8.9999 17.9125 8.9999 17.9125 8.9999 17.9125H8.9999C8.9999 17.9125 8.9999 17.9125 8.9999 17.9125C8.9999 17.9125 8.9999 17.9125 8.9999 17.9125C8.9999 17.9125 8.9999 17.9125 8.9999 17.9125H8.9999C8.9999 17.9125 8.9999 17.9125 8.9999 17.9125C8.9999 17.9125 8.9999 17.9125 8.9999 17.9125H8.99989H8.99989C8.99989 17.9125 8.99989 17.9125 8.99989 17.9125C8.99989 17.9125 8.99989 17.9125 8.99989 17.9125H8.99989H8.99989C8.99989 17.9125 8.99989 17.9125 8.99989 17.9125C8.99989 17.9125 8.99989 17.9125 8.99989 17.9125H8.99989C8.99989 17.9125 8.99989 17.9125 8.99989 17.9125C8.99988 17.9125 8.99988 17.9125 8.99988 17.9125C8.99988 17.9125 8.99988 17.9125 8.99988 17.9125H8.99988C8.99988 17.9125 8.99988 17.9125 8.99988 17.9125C8.99988 17.9125 8.99988 17.9125 8.99988 17.9125C8.99988 17.9125 8.99988 17.9125 8.99988 17.9125H8.99988C8.99988 17.9125 8.99988 17.9125 8.99988 17.9125C8.99988 17.9125 8.99988 17.9125 8.99988 17.9125C8.99988 17.9125 8.99988 17.9125 8.99988 17.9125H8.99988C8.99987 17.9125 8.99987 17.9125 8.99987 17.9125C8.99987 17.9125 8.99987 17.9125 8.99987 17.9125C8.99987 17.9125 8.99987 17.9125 8.99987 17.9125H8.99987C8.99987 17.9125 8.99987 17.9125 8.99987 17.9125C8.99987 17.9125 8.99987 17.9125 8.99987 17.9125C8.99987 17.9125 8.99987 17.9125 8.99987 17.9125H8.99987C8.99987 17.9125 8.99987 17.9125 8.99987 17.9125C8.99987 17.9125 8.99987 17.9125 8.99987 17.9125H8.99986H8.99986C8.99986 17.9125 8.99986 17.9125 8.99986 17.9125C8.99986 17.9125 8.99986 17.9125 8.99986 17.9125H8.99986H8.99986C8.99986 17.9125 8.99986 17.9125 8.99986 17.9125C8.99986 17.9125 8.99986 17.9125 8.99986 17.9125H8.99986C8.99986 17.9125 8.99986 17.9125 8.99986 17.9125C8.99986 17.9125 8.99986 17.9125 8.99986 17.9125C8.99986 17.9125 8.99986 17.9125 8.99985 17.9125H8.99985C8.99985 17.9125 8.99985 17.9125 8.99985 17.9125C8.99985 17.9125 8.99985 17.9125 8.99985 17.9125C8.99985 17.9125 8.99985 17.9125 8.99985 17.9125H8.99985C8.99985 17.9125 8.99985 17.9125 8.99985 17.9125C8.99985 17.9125 8.99985 17.9125 8.99985 17.9125C8.99985 17.9125 8.99985 17.9125 8.99985 17.9125H8.99985C8.99984 17.9125 8.99984 17.9125 8.99984 17.9125C8.99984 17.9125 8.99984 17.9125 8.99984 17.9125C8.99984 17.9125 8.99984 17.9125 8.99984 17.9125H8.99984C8.99984 17.9125 8.99984 17.9125 8.99984 17.9125C8.99984 17.9125 8.99984 17.9125 8.99984 17.9125C8.99984 17.9125 8.99984 17.9125 8.99984 17.9125H8.99984C8.99984 17.9125 8.99984 17.9125 8.99984 17.9125C8.99984 17.9125 8.99984 17.9125 8.99984 17.9125H8.99984H8.99983C8.99983 17.9125 8.99983 17.9125 8.99983 17.9125C8.99983 17.9125 8.99983 17.9125 8.99983 17.9125H8.99983H8.99983C8.99983 17.9125 8.99983 17.9125 8.99983 17.9125C8.99983 17.9125 8.99983 17.9125 8.99983 17.9125H8.99983C8.99983 17.9125 8.99983 17.9125 8.99983 17.9125C8.99983 17.9125 8.99983 17.9125 8.99983 17.9125C8.99983 17.9125 8.99983 17.9125 8.99982 17.9125H8.99982C8.99982 17.9125 8.99982 17.9125 8.99982 17.9125C8.99982 17.9125 8.99982 17.9125 8.99982 17.9125C8.99982 17.9125 8.99982 17.9125 8.99982 17.9125H8.99982C8.99982 17.9125 8.99982 17.9125 8.99982 17.9125C8.99982 17.9125 8.99982 17.9125 8.99982 17.9125C8.99982 17.9125 8.99982 17.9125 8.99982 17.9125H8.99982C8.99981 17.9125 8.99981 17.9125 8.99981 17.9125C8.99981 17.9125 8.99981 17.9125 8.99981 17.9125C8.99981 17.9125 8.99981 17.9125 8.99981 17.9125H8.99981C8.99981 17.9125 8.99981 17.9125 8.99981 17.9125C8.99981 17.9125 8.99981 17.9125 8.99981 17.9125H8.99981H8.99981C8.99981 17.9125 8.99981 17.9125 8.99981 17.9125C8.99981 17.9125 8.99981 17.9125 8.99981 17.9125H8.99981H8.9998C8.9998 17.9125 8.9998 17.9125 8.9998 17.9125C8.9998 17.9125 8.9998 17.9125 8.9998 17.9125H8.9998C8.9998 17.9125 8.9998 17.9125 8.9998 17.9125C8.9998 17.9125 8.9998 17.9125 8.9998 17.9125C8.9998 17.9125 8.9998 17.9125 8.9998 17.9125H8.9998C8.9998 17.9125 8.9998 17.9125 8.9998 17.9125C8.9998 17.9125 8.9998 17.9125 8.9998 17.9125C8.9998 17.9125 8.9998 17.9125 8.99979 17.9125H8.99979C8.99979 17.9125 8.99979 17.9125 8.99979 17.9125C8.99979 17.9125 8.99979 17.9125 8.99979 17.9125C8.99979 17.9125 8.99979 17.9125 8.99979 17.9125H8.99979C8.99979 17.9125 8.99979 17.9125 8.99979 17.9125C8.99979 17.9125 8.99979 17.9125 8.99979 17.9125C8.99979 17.9125 8.99979 17.9125 8.99979 17.9125H8.99979C8.99979 17.9125 8.99979 17.9125 8.99979 17.9125C8.99979 17.9125 8.99979 17.9125 8.99978 17.9125C8.99978 17.9125 8.99978 17.9125 8.99978 17.9125H8.99978C8.99978 17.9125 8.99978 17.9125 8.99978 17.9125C8.99978 17.9125 8.99978 17.9125 8.99978 17.9125H8.99978H8.99978C8.99978 17.9125 8.99978 17.9125 8.99978 17.9125C8.99978 17.9125 8.99978 17.9125 8.99978 17.9125H8.99978H8.99977C8.99977 17.9125 8.99977 17.9125 8.99977 17.9125C8.99977 17.9125 8.99977 17.9125 8.99977 17.9125H8.99977C8.99977 17.9125 8.99977 17.9125 8.99977 17.9125C8.99977 17.9125 8.99977 17.9125 8.99977 17.9125C8.99977 17.9125 8.99977 17.9125 8.99977 17.9125H8.99977C8.99977 17.9125 8.99977 17.9125 8.99977 17.9125C8.99977 17.9125 8.99977 17.9125 8.99977 17.9125C8.99977 17.9125 8.99977 17.9125 8.99977 17.9125H8.99976C8.99976 17.9125 8.99976 17.9125 8.99976 17.9125C8.99976 17.9125 8.99976 17.9125 8.99976 17.9125C8.99976 17.9125 8.99976 17.9125 8.99976 17.9125H8.99976C8.99976 17.9125 8.99976 17.9125 8.99976 17.9125C8.99976 17.9125 8.99976 17.9125 8.99976 17.9125C8.99976 17.9125 8.99976 17.9125 8.99976 17.9125H8.99976C8.99976 17.9125 8.99976 17.9125 8.99976 17.9125C8.99976 17.9125 8.99976 17.9125 8.99975 17.9125H8.99975H8.99975C8.99975 17.9125 8.99975 17.9125 8.99975 17.9125C8.99975 17.9125 8.99975 17.9125 8.99975 17.9125H8.99975H8.99975C8.99975 17.9125 8.99975 17.9125 8.99975 17.9125C8.99975 17.9125 8.99975 17.9125 8.99975 17.9125H8.99975H8.99975C8.99974 17.9125 8.99974 17.9125 8.99974 17.9125C8.99974 17.9125 8.99974 17.9125 8.99974 17.9125H8.99974C8.99974 17.9125 8.99974 17.9125 8.99974 17.9125C8.99974 17.9125 8.99974 17.9125 8.99974 17.9125C8.99974 17.9125 8.99974 17.9125 8.99974 17.9125H8.99974C8.99974 17.9125 8.99974 17.9125 8.99974 17.9125C8.99974 17.9125 8.99974 17.9125 8.99974 17.9125C8.99974 17.9125 8.99974 17.9125 8.99974 17.9125H8.99973C8.99973 17.9125 8.99973 17.9125 8.99973 17.9125C8.99973 17.9125 8.99973 17.9125 8.99973 17.9125C8.99973 17.9125 8.99973 17.9125 8.99973 17.9125H8.99973C8.99973 17.9125 8.99973 17.9125 8.99973 17.9125C8.99973 17.9125 8.99973 17.9125 8.99973 17.9125C8.99973 17.9125 8.99973 17.9125 8.99973 17.9125H8.99973C8.99973 17.9125 8.99973 17.9125 8.99973 17.9125C8.99973 17.9125 8.99973 17.9125 8.99973 17.9125H8.99972H8.99972C8.99972 17.9125 8.99972 17.9125 8.99972 17.9125V18.0872C8.99972 18.0872 8.99972 18.0872 8.99972 18.0872H8.99972H8.99973C8.99973 18.0872 8.99973 18.0872 8.99973 18.0872C8.99973 18.0872 8.99973 18.0872 8.99973 18.0872H8.99973C8.99973 18.0872 8.99973 18.0872 8.99973 18.0872C8.99973 18.0872 8.99973 18.0872 8.99973 18.0872C8.99973 18.0872 8.99973 18.0872 8.99973 18.0872H8.99973C8.99973 18.0872 8.99973 18.0872 8.99973 18.0872C8.99973 18.0872 8.99973 18.0872 8.99973 18.0872C8.99973 18.0872 8.99973 18.0872 8.99973 18.0872H8.99974C8.99974 18.0872 8.99974 18.0872 8.99974 18.0872C8.99974 18.0872 8.99974 18.0872 8.99974 18.0872C8.99974 18.0872 8.99974 18.0872 8.99974 18.0872H8.99974C8.99974 18.0872 8.99974 18.0872 8.99974 18.0872C8.99974 18.0872 8.99974 18.0872 8.99974 18.0872C8.99974 18.0872 8.99974 18.0872 8.99974 18.0872H8.99974C8.99974 18.0872 8.99974 18.0872 8.99974 18.0872C8.99974 18.0872 8.99974 18.0872 8.99975 18.0872H8.99975H8.99975C8.99975 18.0872 8.99975 18.0872 8.99975 18.0872C8.99975 18.0872 8.99975 18.0872 8.99975 18.0872H8.99975H8.99975C8.99975 18.0872 8.99975 18.0872 8.99975 18.0872C8.99975 18.0872 8.99975 18.0872 8.99975 18.0872H8.99975H8.99975C8.99976 18.0872 8.99976 18.0872 8.99976 18.0872C8.99976 18.0872 8.99976 18.0872 8.99976 18.0872H8.99976C8.99976 18.0872 8.99976 18.0872 8.99976 18.0872C8.99976 18.0872 8.99976 18.0872 8.99976 18.0872C8.99976 18.0872 8.99976 18.0872 8.99976 18.0872H8.99976C8.99976 18.0872 8.99976 18.0872 8.99976 18.0872C8.99976 18.0872 8.99976 18.0872 8.99976 18.0872C8.99976 18.0872 8.99976 18.0872 8.99976 18.0872H8.99977C8.99977 18.0872 8.99977 18.0872 8.99977 18.0872C8.99977 18.0872 8.99977 18.0872 8.99977 18.0872C8.99977 18.0872 8.99977 18.0872 8.99977 18.0872H8.99977C8.99977 18.0872 8.99977 18.0872 8.99977 18.0872C8.99977 18.0872 8.99977 18.0872 8.99977 18.0872C8.99977 18.0872 8.99977 18.0872 8.99977 18.0872H8.99977C8.99977 18.0872 8.99977 18.0872 8.99977 18.0872C8.99977 18.0872 8.99977 18.0872 8.99977 18.0872H8.99978H8.99978C8.99978 18.0872 8.99978 18.0872 8.99978 18.0872C8.99978 18.0872 8.99978 18.0872 8.99978 18.0872H8.99978H8.99978C8.99978 18.0872 8.99978 18.0872 8.99978 18.0872C8.99978 18.0872 8.99978 18.0872 8.99978 18.0872H8.99978C8.99978 18.0872 8.99978 18.0872 8.99978 18.0872C8.99979 18.0872 8.99979 18.0872 8.99979 18.0872C8.99979 18.0872 8.99979 18.0872 8.99979 18.0872H8.99979C8.99979 18.0872 8.99979 18.0872 8.99979 18.0872C8.99979 18.0872 8.99979 18.0872 8.99979 18.0872C8.99979 18.0872 8.99979 18.0872 8.99979 18.0872H8.99979C8.99979 18.0872 8.99979 18.0872 8.99979 18.0872C8.99979 18.0872 8.99979 18.0872 8.99979 18.0872C8.99979 18.0872 8.99979 18.0872 8.99979 18.0872H8.99979C8.9998 18.0872 8.9998 18.0872 8.9998 18.0872C8.9998 18.0872 8.9998 18.0872 8.9998 18.0872C8.9998 18.0872 8.9998 18.0872 8.9998 18.0872H8.9998C8.9998 18.0872 8.9998 18.0872 8.9998 18.0872C8.9998 18.0872 8.9998 18.0872 8.9998 18.0872C8.9998 18.0872 8.9998 18.0872 8.9998 18.0872H8.9998C8.9998 18.0872 8.9998 18.0872 8.9998 18.0872C8.9998 18.0872 8.9998 18.0872 8.9998 18.0872H8.99981H8.99981C8.99981 18.0872 8.99981 18.0872 8.99981 18.0872C8.99981 18.0872 8.99981 18.0872 8.99981 18.0872H8.99981H8.99981C8.99981 18.0872 8.99981 18.0872 8.99981 18.0872C8.99981 18.0872 8.99981 18.0872 8.99981 18.0872H8.99981C8.99981 18.0872 8.99981 18.0872 8.99981 18.0872C8.99981 18.0872 8.99981 18.0872 8.99981 18.0872C8.99981 18.0872 8.99981 18.0872 8.99982 18.0872H8.99982C8.99982 18.0872 8.99982 18.0872 8.99982 18.0872C8.99982 18.0872 8.99982 18.0872 8.99982 18.0872C8.99982 18.0872 8.99982 18.0872 8.99982 18.0872H8.99982C8.99982 18.0872 8.99982 18.0872 8.99982 18.0872C8.99982 18.0872 8.99982 18.0872 8.99982 18.0872C8.99982 18.0872 8.99982 18.0872 8.99982 18.0872H8.99982C8.99983 18.0872 8.99983 18.0872 8.99983 18.0872C8.99983 18.0872 8.99983 18.0872 8.99983 18.0872C8.99983 18.0872 8.99983 18.0872 8.99983 18.0872H8.99983C8.99983 18.0872 8.99983 18.0872 8.99983 18.0872C8.99983 18.0872 8.99983 18.0872 8.99983 18.0872H8.99983H8.99983C8.99983 18.0872 8.99983 18.0872 8.99983 18.0872C8.99983 18.0872 8.99983 18.0872 8.99983 18.0872H8.99984H8.99984C8.99984 18.0872 8.99984 18.0872 8.99984 18.0872C8.99984 18.0872 8.99984 18.0872 8.99984 18.0872H8.99984C8.99984 18.0872 8.99984 18.0872 8.99984 18.0872C8.99984 18.0872 8.99984 18.0872 8.99984 18.0872C8.99984 18.0872 8.99984 18.0872 8.99984 18.0872H8.99984C8.99984 18.0872 8.99984 18.0872 8.99984 18.0872C8.99984 18.0872 8.99984 18.0872 8.99984 18.0872C8.99984 18.0872 8.99984 18.0872 8.99985 18.0872H8.99985C8.99985 18.0872 8.99985 18.0872 8.99985 18.0872C8.99985 18.0872 8.99985 18.0872 8.99985 18.0872C8.99985 18.0872 8.99985 18.0872 8.99985 18.0872H8.99985C8.99985 18.0872 8.99985 18.0872 8.99985 18.0872C8.99985 18.0872 8.99985 18.0872 8.99985 18.0872C8.99985 18.0872 8.99985 18.0872 8.99985 18.0872H8.99985C8.99986 18.0872 8.99986 18.0872 8.99986 18.0872C8.99986 18.0872 8.99986 18.0872 8.99986 18.0872C8.99986 18.0872 8.99986 18.0872 8.99986 18.0872H8.99986C8.99986 18.0872 8.99986 18.0872 8.99986 18.0872C8.99986 18.0872 8.99986 18.0872 8.99986 18.0872H8.99986H8.99986C8.99986 18.0872 8.99986 18.0872 8.99986 18.0872C8.99986 18.0872 8.99986 18.0872 8.99986 18.0872H8.99986H8.99987C8.99987 18.0872 8.99987 18.0872 8.99987 18.0872C8.99987 18.0872 8.99987 18.0872 8.99987 18.0872H8.99987C8.99987 18.0872 8.99987 18.0872 8.99987 18.0872C8.99987 18.0872 8.99987 18.0872 8.99987 18.0872C8.99987 18.0872 8.99987 18.0872 8.99987 18.0872H8.99987C8.99987 18.0872 8.99987 18.0872 8.99987 18.0872C8.99987 18.0872 8.99987 18.0872 8.99987 18.0872C8.99987 18.0872 8.99987 18.0872 8.99988 18.0872H8.99988C8.99988 18.0872 8.99988 18.0872 8.99988 18.0872C8.99988 18.0872 8.99988 18.0872 8.99988 18.0872C8.99988 18.0872 8.99988 18.0872 8.99988 18.0872H8.99988C8.99988 18.0872 8.99988 18.0872 8.99988 18.0872C8.99988 18.0872 8.99988 18.0872 8.99988 18.0872C8.99988 18.0872 8.99988 18.0872 8.99988 18.0872H8.99988C8.99988 18.0872 8.99988 18.0872 8.99988 18.0872C8.99988 18.0872 8.99988 18.0872 8.99989 18.0872C8.99989 18.0872 8.99989 18.0872 8.99989 18.0872H8.99989C8.99989 18.0872 8.99989 18.0872 8.99989 18.0872C8.99989 18.0872 8.99989 18.0872 8.99989 18.0872H8.99989H8.99989C8.99989 18.0872 8.99989 18.0872 8.99989 18.0872C8.99989 18.0872 8.99989 18.0872 8.99989 18.0872H8.99989H8.9999C8.9999 18.0872 8.9999 18.0872 8.9999 18.0872C8.9999 18.0872 8.9999 18.0872 8.9999 18.0872H8.9999C8.9999 18.0872 8.9999 18.0872 8.9999 18.0872C8.9999 18.0872 8.9999 18.0872 8.9999 18.0872C8.9999 18.0872 8.9999 18.0872 8.9999 18.0872H8.9999C8.9999 18.0872 8.9999 18.0872 8.9999 18.0872C8.9999 18.0872 8.9999 18.0872 8.9999 18.0872C8.9999 18.0872 8.9999 18.0872 8.9999 18.0872H8.99991C8.99991 18.0872 8.99991 18.0872 8.99991 18.0872C8.99991 18.0872 8.99991 18.0872 8.99991 18.0872C8.99991 18.0872 8.99991 18.0872 8.99991 18.0872H8.99991C8.99991 18.0872 8.99991 18.0872 8.99991 18.0872C8.99991 18.0872 8.99991 18.0872 8.99991 18.0872C8.99991 18.0872 8.99991 18.0872 8.99991 18.0872H8.99991C8.99991 18.0872 8.99991 18.0872 8.99991 18.0872C8.99991 18.0872 8.99991 18.0872 8.99992 18.0872H8.99992H8.99992C8.99992 18.0872 8.99992 18.0872 8.99992 18.0872C8.99992 18.0872 8.99992 18.0872 8.99992 18.0872H8.99992H8.99992C8.99992 18.0872 8.99992 18.0872 8.99992 18.0872C8.99992 18.0872 8.99992 18.0872 8.99992 18.0872H8.99992C8.99992 18.0872 8.99992 18.0872 8.99992 18.0872C8.99993 18.0872 8.99993 18.0872 8.99993 18.0872C8.99993 18.0872 8.99993 18.0872 8.99993 18.0872H8.99993C8.99993 18.0872 8.99993 18.0872 8.99993 18.0872C8.99993 18.0872 8.99993 18.0872 8.99993 18.0872C8.99993 18.0872 8.99993 18.0872 8.99993 18.0872H8.99993C8.99993 18.0872 8.99993 18.0872 8.99993 18.0872C8.99993 18.0872 8.99993 18.0872 8.99993 18.0872C8.99993 18.0872 8.99993 18.0872 8.99993 18.0872H8.99994C8.99994 18.0872 8.99994 18.0872 8.99994 18.0872C8.99994 18.0872 8.99994 18.0872 8.99994 18.0872C8.99994 18.0872 8.99994 18.0872 8.99994 18.0872H8.99994C8.99994 18.0872 8.99994 18.0872 8.99994 18.0872C8.99994 18.0872 8.99994 18.0872 8.99994 18.0872C8.99994 18.0872 8.99994 18.0872 8.99994 18.0872H8.99994C8.99994 18.0872 8.99994 18.0872 8.99994 18.0872C8.99994 18.0872 8.99994 18.0872 8.99994 18.0872H8.99995H8.99995C8.99995 18.0872 8.99995 18.0872 8.99995 18.0872C8.99995 18.0872 8.99995 18.0872 8.99995 18.0872H8.99995H8.99995C8.99995 18.0872 8.99995 18.0872 8.99995 18.0872C8.99995 18.0872 8.99995 18.0872 8.99995 18.0872H8.99995C8.99995 18.0872 8.99995 18.0872 8.99995 18.0872C8.99996 18.0872 8.99996 18.0872 8.99996 18.0872C8.99996 18.0872 8.99996 18.0872 8.99996 18.0872H8.99996C8.99996 18.0872 8.99996 18.0872 8.99996 18.0872C8.99996 18.0872 8.99996 18.0872 8.99996 18.0872C8.99996 18.0872 8.99996 18.0872 8.99996 18.0872H8.99996C8.99996 18.0872 8.99996 18.0872 8.99996 18.0872C8.99996 18.0872 8.99996 18.0872 8.99996 18.0872C8.99996 18.0872 8.99996 18.0872 8.99996 18.0872H8.99996C8.99997 18.0872 8.99997 18.0872 8.99997 18.0872C8.99997 18.0872 8.99997 18.0872 8.99997 18.0872C8.99997 18.0872 8.99997 18.0872 8.99997 18.0872H8.99997C8.99997 18.0872 8.99997 18.0872 8.99997 18.0872C8.99997 18.0872 8.99997 18.0872 8.99997 18.0872H8.99997H8.99997C8.99997 18.0872 8.99997 18.0872 8.99997 18.0872C8.99997 18.0872 8.99997 18.0872 8.99997 18.0872H8.99998H8.99998C8.99998 18.0872 8.99998 18.0872 8.99998 18.0872C8.99998 18.0872 8.99998 18.0872 8.99998 18.0872H8.99998H8.99998C8.99998 18.0872 8.99998 18.0872 8.99998 18.0872C8.99998 18.0872 8.99998 18.0872 8.99998 18.0872H8.99998C8.99998 18.0872 8.99998 18.0872 8.99998 18.0872C8.99998 18.0872 8.99998 18.0872 8.99998 18.0872C8.99998 18.0872 8.99998 18.0872 8.99999 18.0872H8.99999C8.99999 18.0872 8.99999 18.0872 8.99999 18.0872C8.99999 18.0872 8.99999 18.0872 8.99999 18.0872C8.99999 18.0872 8.99999 18.0872 8.99999 18.0872H8.99999C8.99999 18.0872 8.99999 18.0872 8.99999 18.0872C8.99999 18.0872 8.99999 18.0872 8.99999 18.0872C8.99999 18.0872 8.99999 18.0872 8.99999 18.0872H8.99999C9 18.0872 9 18.0872 9 18.0872C9 18.0872 9 18.0872 9 18.0872C9 18.0872 9 18.0872 9 18.0872H9C9 18.0872 9 18.0872 9 18.0872C9 18.0872 9 18.0872 9 18.0872H9H9C9 18.0872 9 18.0872 9 18.0872V17.9125ZM8.99972 17.9125C4.07756 17.9125 0.0873562 13.9222 0.0873562 8.99992H-0.0873562C-0.0873562 14.0187 3.98107 18.0872 8.99972 18.0872V17.9125ZM0.0873562 8.99992C0.0873562 4.07764 4.07756 0.0873562 8.99972 0.0873562V-0.0873562C3.98107 -0.0873562 -0.0873562 3.98116 -0.0873562 8.99992H0.0873562ZM8.99972 0.0873562C8.99972 0.0873562 8.99972 0.0873562 8.99972 0.0873562H8.99972H8.99973C8.99973 0.0873562 8.99973 0.0873562 8.99973 0.0873562C8.99973 0.0873562 8.99973 0.0873562 8.99973 0.0873562H8.99973C8.99973 0.0873562 8.99973 0.0873562 8.99973 0.0873562C8.99973 0.0873562 8.99973 0.0873562 8.99973 0.0873562C8.99973 0.0873562 8.99973 0.0873562 8.99973 0.0873562H8.99973C8.99973 0.0873562 8.99973 0.0873562 8.99973 0.0873562C8.99973 0.0873562 8.99973 0.0873562 8.99973 0.0873562C8.99973 0.0873562 8.99973 0.0873562 8.99973 0.0873562H8.99974C8.99974 0.0873562 8.99974 0.0873562 8.99974 0.0873562C8.99974 0.0873562 8.99974 0.0873562 8.99974 0.0873562C8.99974 0.0873562 8.99974 0.0873562 8.99974 0.0873562H8.99974C8.99974 0.0873562 8.99974 0.0873562 8.99974 0.0873562C8.99974 0.0873562 8.99974 0.0873562 8.99974 0.0873562C8.99974 0.0873562 8.99974 0.0873562 8.99974 0.0873562H8.99974C8.99974 0.0873562 8.99974 0.0873562 8.99974 0.0873562C8.99974 0.0873562 8.99974 0.0873562 8.99975 0.0873562H8.99975H8.99975C8.99975 0.0873562 8.99975 0.0873562 8.99975 0.0873562C8.99975 0.0873562 8.99975 0.0873562 8.99975 0.0873562H8.99975H8.99975C8.99975 0.0873562 8.99975 0.0873562 8.99975 0.0873562C8.99975 0.0873562 8.99975 0.0873562 8.99975 0.0873562H8.99975H8.99975C8.99976 0.0873562 8.99976 0.0873562 8.99976 0.0873562C8.99976 0.0873562 8.99976 0.0873562 8.99976 0.0873562H8.99976C8.99976 0.0873562 8.99976 0.0873562 8.99976 0.0873562C8.99976 0.0873562 8.99976 0.0873562 8.99976 0.0873562C8.99976 0.0873562 8.99976 0.0873562 8.99976 0.0873562H8.99976C8.99976 0.0873562 8.99976 0.0873562 8.99976 0.0873562C8.99976 0.0873562 8.99976 0.0873562 8.99976 0.0873562C8.99976 0.0873562 8.99976 0.0873562 8.99976 0.0873562H8.99977C8.99977 0.0873562 8.99977 0.0873562 8.99977 0.0873562C8.99977 0.0873562 8.99977 0.0873562 8.99977 0.0873562C8.99977 0.0873562 8.99977 0.0873562 8.99977 0.0873562H8.99977C8.99977 0.0873562 8.99977 0.0873562 8.99977 0.0873562C8.99977 0.0873562 8.99977 0.0873562 8.99977 0.0873562C8.99977 0.0873562 8.99977 0.0873562 8.99977 0.0873562H8.99977C8.99977 0.0873562 8.99977 0.0873562 8.99977 0.0873562C8.99977 0.0873562 8.99977 0.0873562 8.99977 0.0873562H8.99978H8.99978C8.99978 0.0873562 8.99978 0.0873562 8.99978 0.0873562C8.99978 0.0873562 8.99978 0.0873562 8.99978 0.0873562H8.99978H8.99978C8.99978 0.0873562 8.99978 0.0873562 8.99978 0.0873562C8.99978 0.0873562 8.99978 0.0873562 8.99978 0.0873562H8.99978C8.99978 0.0873562 8.99978 0.0873562 8.99978 0.0873562C8.99979 0.0873562 8.99979 0.0873562 8.99979 0.0873562C8.99979 0.0873562 8.99979 0.0873562 8.99979 0.0873562H8.99979C8.99979 0.0873562 8.99979 0.0873562 8.99979 0.0873562C8.99979 0.0873562 8.99979 0.0873562 8.99979 0.0873562C8.99979 0.0873562 8.99979 0.0873562 8.99979 0.0873562H8.99979C8.99979 0.0873562 8.99979 0.0873562 8.99979 0.0873562C8.99979 0.0873562 8.99979 0.0873562 8.99979 0.0873562C8.99979 0.0873562 8.99979 0.0873562 8.99979 0.0873562H8.99979C8.9998 0.0873562 8.9998 0.0873562 8.9998 0.0873562C8.9998 0.0873562 8.9998 0.0873562 8.9998 0.0873562C8.9998 0.0873562 8.9998 0.0873562 8.9998 0.0873562H8.9998C8.9998 0.0873562 8.9998 0.0873562 8.9998 0.0873562C8.9998 0.0873562 8.9998 0.0873562 8.9998 0.0873562C8.9998 0.0873562 8.9998 0.0873562 8.9998 0.0873562H8.9998C8.9998 0.0873562 8.9998 0.0873562 8.9998 0.0873562C8.9998 0.0873562 8.9998 0.0873562 8.9998 0.0873562H8.99981H8.99981C8.99981 0.0873562 8.99981 0.0873562 8.99981 0.0873562C8.99981 0.0873562 8.99981 0.0873562 8.99981 0.0873562H8.99981H8.99981C8.99981 0.0873562 8.99981 0.0873562 8.99981 0.0873562C8.99981 0.0873562 8.99981 0.0873562 8.99981 0.0873562H8.99981C8.99981 0.0873562 8.99981 0.0873562 8.99981 0.0873562C8.99981 0.0873562 8.99981 0.0873562 8.99981 0.0873562C8.99981 0.0873562 8.99981 0.0873562 8.99982 0.0873562H8.99982C8.99982 0.0873562 8.99982 0.0873562 8.99982 0.0873562C8.99982 0.0873562 8.99982 0.0873562 8.99982 0.0873562C8.99982 0.0873562 8.99982 0.0873562 8.99982 0.0873562H8.99982C8.99982 0.0873562 8.99982 0.0873562 8.99982 0.0873562C8.99982 0.0873562 8.99982 0.0873562 8.99982 0.0873562C8.99982 0.0873562 8.99982 0.0873562 8.99982 0.0873562H8.99982C8.99983 0.0873562 8.99983 0.0873562 8.99983 0.0873562C8.99983 0.0873562 8.99983 0.0873562 8.99983 0.0873562C8.99983 0.0873562 8.99983 0.0873562 8.99983 0.0873562H8.99983C8.99983 0.0873562 8.99983 0.0873562 8.99983 0.0873562C8.99983 0.0873562 8.99983 0.0873562 8.99983 0.0873562H8.99983H8.99983C8.99983 0.0873562 8.99983 0.0873562 8.99983 0.0873562C8.99983 0.0873562 8.99983 0.0873562 8.99983 0.0873562H8.99984H8.99984C8.99984 0.0873562 8.99984 0.0873562 8.99984 0.0873562C8.99984 0.0873562 8.99984 0.0873562 8.99984 0.0873562H8.99984C8.99984 0.0873562 8.99984 0.0873562 8.99984 0.0873562C8.99984 0.0873562 8.99984 0.0873562 8.99984 0.0873562C8.99984 0.0873562 8.99984 0.0873562 8.99984 0.0873562H8.99984C8.99984 0.0873562 8.99984 0.0873562 8.99984 0.0873562C8.99984 0.0873562 8.99984 0.0873562 8.99984 0.0873562C8.99984 0.0873562 8.99984 0.0873562 8.99985 0.0873562H8.99985C8.99985 0.0873562 8.99985 0.0873562 8.99985 0.0873562C8.99985 0.0873562 8.99985 0.0873562 8.99985 0.0873562C8.99985 0.0873562 8.99985 0.0873562 8.99985 0.0873562H8.99985C8.99985 0.0873562 8.99985 0.0873562 8.99985 0.0873562C8.99985 0.0873562 8.99985 0.0873562 8.99985 0.0873562C8.99985 0.0873562 8.99985 0.0873562 8.99985 0.0873562H8.99985C8.99986 0.0873562 8.99986 0.0873562 8.99986 0.0873562C8.99986 0.0873562 8.99986 0.0873562 8.99986 0.0873562C8.99986 0.0873562 8.99986 0.0873562 8.99986 0.0873562H8.99986C8.99986 0.0873562 8.99986 0.0873562 8.99986 0.0873562C8.99986 0.0873562 8.99986 0.0873562 8.99986 0.0873562H8.99986H8.99986C8.99986 0.0873562 8.99986 0.0873562 8.99986 0.0873562C8.99986 0.0873562 8.99986 0.0873562 8.99986 0.0873562H8.99986H8.99987C8.99987 0.0873562 8.99987 0.0873562 8.99987 0.0873562C8.99987 0.0873562 8.99987 0.0873562 8.99987 0.0873562H8.99987C8.99987 0.0873562 8.99987 0.0873562 8.99987 0.0873562C8.99987 0.0873562 8.99987 0.0873562 8.99987 0.0873562C8.99987 0.0873562 8.99987 0.0873562 8.99987 0.0873562H8.99987C8.99987 0.0873562 8.99987 0.0873562 8.99987 0.0873562C8.99987 0.0873562 8.99987 0.0873562 8.99987 0.0873562C8.99987 0.0873562 8.99987 0.0873562 8.99988 0.0873562H8.99988C8.99988 0.0873562 8.99988 0.0873562 8.99988 0.0873562C8.99988 0.0873562 8.99988 0.0873562 8.99988 0.0873562C8.99988 0.0873562 8.99988 0.0873562 8.99988 0.0873562H8.99988C8.99988 0.0873562 8.99988 0.0873562 8.99988 0.0873562C8.99988 0.0873562 8.99988 0.0873562 8.99988 0.0873562C8.99988 0.0873562 8.99988 0.0873562 8.99988 0.0873562H8.99988C8.99988 0.0873562 8.99988 0.0873562 8.99988 0.0873562C8.99988 0.0873562 8.99988 0.0873562 8.99989 0.0873562C8.99989 0.0873562 8.99989 0.0873562 8.99989 0.0873562H8.99989C8.99989 0.0873562 8.99989 0.0873562 8.99989 0.0873562C8.99989 0.0873562 8.99989 0.0873562 8.99989 0.0873562H8.99989H8.99989C8.99989 0.0873562 8.99989 0.0873562 8.99989 0.0873562C8.99989 0.0873562 8.99989 0.0873562 8.99989 0.0873562H8.99989H8.9999C8.9999 0.0873562 8.9999 0.0873562 8.9999 0.0873562C8.9999 0.0873562 8.9999 0.0873562 8.9999 0.0873562H8.9999C8.9999 0.0873562 8.9999 0.0873562 8.9999 0.0873562C8.9999 0.0873562 8.9999 0.0873562 8.9999 0.0873562C8.9999 0.0873562 8.9999 0.0873562 8.9999 0.0873562H8.9999C8.9999 0.0873562 8.9999 0.0873562 8.9999 0.0873562C8.9999 0.0873562 8.9999 0.0873562 8.9999 0.0873562C8.9999 0.0873562 8.9999 0.0873562 8.9999 0.0873562H8.99991C8.99991 0.0873562 8.99991 0.0873562 8.99991 0.0873562C8.99991 0.0873562 8.99991 0.0873562 8.99991 0.0873562C8.99991 0.0873562 8.99991 0.0873562 8.99991 0.0873562H8.99991C8.99991 0.0873562 8.99991 0.0873562 8.99991 0.0873562C8.99991 0.0873562 8.99991 0.0873562 8.99991 0.0873562C8.99991 0.0873562 8.99991 0.0873562 8.99991 0.0873562H8.99991C8.99991 0.0873562 8.99991 0.0873562 8.99991 0.0873562C8.99991 0.0873562 8.99991 0.0873562 8.99992 0.0873562H8.99992H8.99992C8.99992 0.0873562 8.99992 0.0873562 8.99992 0.0873562C8.99992 0.0873562 8.99992 0.0873562 8.99992 0.0873562H8.99992H8.99992C8.99992 0.0873562 8.99992 0.0873562 8.99992 0.0873562C8.99992 0.0873562 8.99992 0.0873562 8.99992 0.0873562H8.99992C8.99992 0.0873562 8.99992 0.0873562 8.99992 0.0873562C8.99993 0.0873562 8.99993 0.0873562 8.99993 0.0873562C8.99993 0.0873562 8.99993 0.0873562 8.99993 0.0873562H8.99993C8.99993 0.0873562 8.99993 0.0873562 8.99993 0.0873562C8.99993 0.0873562 8.99993 0.0873562 8.99993 0.0873562C8.99993 0.0873562 8.99993 0.0873562 8.99993 0.0873562H8.99993C8.99993 0.0873562 8.99993 0.0873562 8.99993 0.0873562C8.99993 0.0873562 8.99993 0.0873562 8.99993 0.0873562C8.99993 0.0873562 8.99993 0.0873562 8.99993 0.0873562H8.99994C8.99994 0.0873562 8.99994 0.0873562 8.99994 0.0873562C8.99994 0.0873562 8.99994 0.0873562 8.99994 0.0873562C8.99994 0.0873562 8.99994 0.0873562 8.99994 0.0873562H8.99994C8.99994 0.0873562 8.99994 0.0873562 8.99994 0.0873562C8.99994 0.0873562 8.99994 0.0873562 8.99994 0.0873562C8.99994 0.0873562 8.99994 0.0873562 8.99994 0.0873562H8.99994C8.99994 0.0873562 8.99994 0.0873562 8.99994 0.0873562C8.99994 0.0873562 8.99994 0.0873562 8.99994 0.0873562H8.99995H8.99995C8.99995 0.0873562 8.99995 0.0873562 8.99995 0.0873562C8.99995 0.0873562 8.99995 0.0873562 8.99995 0.0873562H8.99995H8.99995C8.99995 0.0873562 8.99995 0.0873562 8.99995 0.0873562C8.99995 0.0873562 8.99995 0.0873562 8.99995 0.0873562H8.99995C8.99995 0.0873562 8.99995 0.0873562 8.99995 0.0873562C8.99996 0.0873562 8.99996 0.0873562 8.99996 0.0873562C8.99996 0.0873562 8.99996 0.0873562 8.99996 0.0873562H8.99996C8.99996 0.0873562 8.99996 0.0873562 8.99996 0.0873562C8.99996 0.0873562 8.99996 0.0873562 8.99996 0.0873562C8.99996 0.0873562 8.99996 0.0873562 8.99996 0.0873562H8.99996C8.99996 0.0873562 8.99996 0.0873562 8.99996 0.0873562C8.99996 0.0873562 8.99996 0.0873562 8.99996 0.0873562C8.99996 0.0873562 8.99996 0.0873562 8.99996 0.0873562H8.99996C8.99997 0.0873562 8.99997 0.0873562 8.99997 0.0873562C8.99997 0.0873562 8.99997 0.0873562 8.99997 0.0873562C8.99997 0.0873562 8.99997 0.0873562 8.99997 0.0873562H8.99997C8.99997 0.0873562 8.99997 0.0873562 8.99997 0.0873562C8.99997 0.0873562 8.99997 0.0873562 8.99997 0.0873562H8.99997H8.99997C8.99997 0.0873562 8.99997 0.0873562 8.99997 0.0873562C8.99997 0.0873562 8.99997 0.0873562 8.99997 0.0873562H8.99998H8.99998C8.99998 0.0873562 8.99998 0.0873562 8.99998 0.0873562C8.99998 0.0873562 8.99998 0.0873562 8.99998 0.0873562H8.99998H8.99998C8.99998 0.0873562 8.99998 0.0873562 8.99998 0.0873562C8.99998 0.0873562 8.99998 0.0873562 8.99998 0.0873562H8.99998C8.99998 0.0873562 8.99998 0.0873562 8.99998 0.0873562C8.99998 0.0873562 8.99998 0.0873562 8.99998 0.0873562C8.99998 0.0873562 8.99998 0.0873562 8.99999 0.0873562H8.99999C8.99999 0.0873562 8.99999 0.0873562 8.99999 0.0873562C8.99999 0.0873562 8.99999 0.0873562 8.99999 0.0873562C8.99999 0.0873562 8.99999 0.0873562 8.99999 0.0873562H8.99999C8.99999 0.0873562 8.99999 0.0873562 8.99999 0.0873562C8.99999 0.0873562 8.99999 0.0873562 8.99999 0.0873562C8.99999 0.0873562 8.99999 0.0873562 8.99999 0.0873562H8.99999C9 0.0873562 9 0.0873562 9 0.0873562C9 0.0873562 9 0.0873562 9 0.0873562C9 0.0873562 9 0.0873562 9 0.0873562H9C9 0.0873562 9 0.0873562 9 0.0873562C9 0.0873562 9 0.0873562 9 0.0873562H9H9C9 0.0873562 9 0.0873562 9 0.0873562V-0.0873562C9 -0.0873562 9 -0.0873562 9 -0.0873562H9H9C9 -0.0873562 9 -0.0873562 9 -0.0873562C9 -0.0873562 9 -0.0873562 9 -0.0873562H9C9 -0.0873562 9 -0.0873562 9 -0.0873562C9 -0.0873562 9 -0.0873562 9 -0.0873562C9 -0.0873562 9 -0.0873562 8.99999 -0.0873562H8.99999C8.99999 -0.0873562 8.99999 -0.0873562 8.99999 -0.0873562C8.99999 -0.0873562 8.99999 -0.0873562 8.99999 -0.0873562C8.99999 -0.0873562 8.99999 -0.0873562 8.99999 -0.0873562H8.99999C8.99999 -0.0873562 8.99999 -0.0873562 8.99999 -0.0873562C8.99999 -0.0873562 8.99999 -0.0873562 8.99999 -0.0873562C8.99999 -0.0873562 8.99999 -0.0873562 8.99999 -0.0873562H8.99999C8.99998 -0.0873562 8.99998 -0.0873562 8.99998 -0.0873562C8.99998 -0.0873562 8.99998 -0.0873562 8.99998 -0.0873562C8.99998 -0.0873562 8.99998 -0.0873562 8.99998 -0.0873562H8.99998C8.99998 -0.0873562 8.99998 -0.0873562 8.99998 -0.0873562C8.99998 -0.0873562 8.99998 -0.0873562 8.99998 -0.0873562H8.99998H8.99998C8.99998 -0.0873562 8.99998 -0.0873562 8.99998 -0.0873562C8.99998 -0.0873562 8.99998 -0.0873562 8.99998 -0.0873562H8.99998H8.99997C8.99997 -0.0873562 8.99997 -0.0873562 8.99997 -0.0873562C8.99997 -0.0873562 8.99997 -0.0873562 8.99997 -0.0873562H8.99997H8.99997C8.99997 -0.0873562 8.99997 -0.0873562 8.99997 -0.0873562C8.99997 -0.0873562 8.99997 -0.0873562 8.99997 -0.0873562H8.99997C8.99997 -0.0873562 8.99997 -0.0873562 8.99997 -0.0873562C8.99997 -0.0873562 8.99997 -0.0873562 8.99997 -0.0873562C8.99997 -0.0873562 8.99997 -0.0873562 8.99996 -0.0873562H8.99996C8.99996 -0.0873562 8.99996 -0.0873562 8.99996 -0.0873562C8.99996 -0.0873562 8.99996 -0.0873562 8.99996 -0.0873562C8.99996 -0.0873562 8.99996 -0.0873562 8.99996 -0.0873562H8.99996C8.99996 -0.0873562 8.99996 -0.0873562 8.99996 -0.0873562C8.99996 -0.0873562 8.99996 -0.0873562 8.99996 -0.0873562C8.99996 -0.0873562 8.99996 -0.0873562 8.99996 -0.0873562H8.99996C8.99996 -0.0873562 8.99996 -0.0873562 8.99996 -0.0873562C8.99996 -0.0873562 8.99996 -0.0873562 8.99995 -0.0873562C8.99995 -0.0873562 8.99995 -0.0873562 8.99995 -0.0873562H8.99995C8.99995 -0.0873562 8.99995 -0.0873562 8.99995 -0.0873562C8.99995 -0.0873562 8.99995 -0.0873562 8.99995 -0.0873562H8.99995H8.99995C8.99995 -0.0873562 8.99995 -0.0873562 8.99995 -0.0873562C8.99995 -0.0873562 8.99995 -0.0873562 8.99995 -0.0873562H8.99995H8.99994C8.99994 -0.0873562 8.99994 -0.0873562 8.99994 -0.0873562C8.99994 -0.0873562 8.99994 -0.0873562 8.99994 -0.0873562H8.99994C8.99994 -0.0873562 8.99994 -0.0873562 8.99994 -0.0873562C8.99994 -0.0873562 8.99994 -0.0873562 8.99994 -0.0873562C8.99994 -0.0873562 8.99994 -0.0873562 8.99994 -0.0873562H8.99994C8.99994 -0.0873562 8.99994 -0.0873562 8.99994 -0.0873562C8.99994 -0.0873562 8.99994 -0.0873562 8.99994 -0.0873562C8.99994 -0.0873562 8.99994 -0.0873562 8.99994 -0.0873562H8.99993C8.99993 -0.0873562 8.99993 -0.0873562 8.99993 -0.0873562C8.99993 -0.0873562 8.99993 -0.0873562 8.99993 -0.0873562C8.99993 -0.0873562 8.99993 -0.0873562 8.99993 -0.0873562H8.99993C8.99993 -0.0873562 8.99993 -0.0873562 8.99993 -0.0873562C8.99993 -0.0873562 8.99993 -0.0873562 8.99993 -0.0873562C8.99993 -0.0873562 8.99993 -0.0873562 8.99993 -0.0873562H8.99993C8.99993 -0.0873562 8.99993 -0.0873562 8.99993 -0.0873562C8.99993 -0.0873562 8.99993 -0.0873562 8.99992 -0.0873562C8.99992 -0.0873562 8.99992 -0.0873562 8.99992 -0.0873562H8.99992C8.99992 -0.0873562 8.99992 -0.0873562 8.99992 -0.0873562C8.99992 -0.0873562 8.99992 -0.0873562 8.99992 -0.0873562H8.99992H8.99992C8.99992 -0.0873562 8.99992 -0.0873562 8.99992 -0.0873562C8.99992 -0.0873562 8.99992 -0.0873562 8.99992 -0.0873562H8.99992H8.99992C8.99991 -0.0873562 8.99991 -0.0873562 8.99991 -0.0873562C8.99991 -0.0873562 8.99991 -0.0873562 8.99991 -0.0873562H8.99991C8.99991 -0.0873562 8.99991 -0.0873562 8.99991 -0.0873562C8.99991 -0.0873562 8.99991 -0.0873562 8.99991 -0.0873562C8.99991 -0.0873562 8.99991 -0.0873562 8.99991 -0.0873562H8.99991C8.99991 -0.0873562 8.99991 -0.0873562 8.99991 -0.0873562C8.99991 -0.0873562 8.99991 -0.0873562 8.99991 -0.0873562C8.99991 -0.0873562 8.99991 -0.0873562 8.99991 -0.0873562H8.9999C8.9999 -0.0873562 8.9999 -0.0873562 8.9999 -0.0873562C8.9999 -0.0873562 8.9999 -0.0873562 8.9999 -0.0873562C8.9999 -0.0873562 8.9999 -0.0873562 8.9999 -0.0873562H8.9999C8.9999 -0.0873562 8.9999 -0.0873562 8.9999 -0.0873562C8.9999 -0.0873562 8.9999 -0.0873562 8.9999 -0.0873562C8.9999 -0.0873562 8.9999 -0.0873562 8.9999 -0.0873562H8.9999C8.9999 -0.0873562 8.9999 -0.0873562 8.9999 -0.0873562C8.9999 -0.0873562 8.9999 -0.0873562 8.9999 -0.0873562H8.99989H8.99989C8.99989 -0.0873562 8.99989 -0.0873562 8.99989 -0.0873562C8.99989 -0.0873562 8.99989 -0.0873562 8.99989 -0.0873562H8.99989H8.99989C8.99989 -0.0873562 8.99989 -0.0873562 8.99989 -0.0873562C8.99989 -0.0873562 8.99989 -0.0873562 8.99989 -0.0873562H8.99989C8.99989 -0.0873562 8.99989 -0.0873562 8.99989 -0.0873562C8.99988 -0.0873562 8.99988 -0.0873562 8.99988 -0.0873562C8.99988 -0.0873562 8.99988 -0.0873562 8.99988 -0.0873562H8.99988C8.99988 -0.0873562 8.99988 -0.0873562 8.99988 -0.0873562C8.99988 -0.0873562 8.99988 -0.0873562 8.99988 -0.0873562C8.99988 -0.0873562 8.99988 -0.0873562 8.99988 -0.0873562H8.99988C8.99988 -0.0873562 8.99988 -0.0873562 8.99988 -0.0873562C8.99988 -0.0873562 8.99988 -0.0873562 8.99988 -0.0873562C8.99988 -0.0873562 8.99988 -0.0873562 8.99988 -0.0873562H8.99988C8.99987 -0.0873562 8.99987 -0.0873562 8.99987 -0.0873562C8.99987 -0.0873562 8.99987 -0.0873562 8.99987 -0.0873562C8.99987 -0.0873562 8.99987 -0.0873562 8.99987 -0.0873562H8.99987C8.99987 -0.0873562 8.99987 -0.0873562 8.99987 -0.0873562C8.99987 -0.0873562 8.99987 -0.0873562 8.99987 -0.0873562C8.99987 -0.0873562 8.99987 -0.0873562 8.99987 -0.0873562H8.99987C8.99987 -0.0873562 8.99987 -0.0873562 8.99987 -0.0873562C8.99987 -0.0873562 8.99987 -0.0873562 8.99987 -0.0873562H8.99986H8.99986C8.99986 -0.0873562 8.99986 -0.0873562 8.99986 -0.0873562C8.99986 -0.0873562 8.99986 -0.0873562 8.99986 -0.0873562H8.99986H8.99986C8.99986 -0.0873562 8.99986 -0.0873562 8.99986 -0.0873562C8.99986 -0.0873562 8.99986 -0.0873562 8.99986 -0.0873562H8.99986C8.99986 -0.0873562 8.99986 -0.0873562 8.99986 -0.0873562C8.99986 -0.0873562 8.99986 -0.0873562 8.99986 -0.0873562C8.99986 -0.0873562 8.99986 -0.0873562 8.99985 -0.0873562H8.99985C8.99985 -0.0873562 8.99985 -0.0873562 8.99985 -0.0873562C8.99985 -0.0873562 8.99985 -0.0873562 8.99985 -0.0873562C8.99985 -0.0873562 8.99985 -0.0873562 8.99985 -0.0873562H8.99985C8.99985 -0.0873562 8.99985 -0.0873562 8.99985 -0.0873562C8.99985 -0.0873562 8.99985 -0.0873562 8.99985 -0.0873562C8.99985 -0.0873562 8.99985 -0.0873562 8.99985 -0.0873562H8.99985C8.99984 -0.0873562 8.99984 -0.0873562 8.99984 -0.0873562C8.99984 -0.0873562 8.99984 -0.0873562 8.99984 -0.0873562C8.99984 -0.0873562 8.99984 -0.0873562 8.99984 -0.0873562H8.99984C8.99984 -0.0873562 8.99984 -0.0873562 8.99984 -0.0873562C8.99984 -0.0873562 8.99984 -0.0873562 8.99984 -0.0873562C8.99984 -0.0873562 8.99984 -0.0873562 8.99984 -0.0873562H8.99984C8.99984 -0.0873562 8.99984 -0.0873562 8.99984 -0.0873562C8.99984 -0.0873562 8.99984 -0.0873562 8.99984 -0.0873562H8.99984H8.99983C8.99983 -0.0873562 8.99983 -0.0873562 8.99983 -0.0873562C8.99983 -0.0873562 8.99983 -0.0873562 8.99983 -0.0873562H8.99983H8.99983C8.99983 -0.0873562 8.99983 -0.0873562 8.99983 -0.0873562C8.99983 -0.0873562 8.99983 -0.0873562 8.99983 -0.0873562H8.99983C8.99983 -0.0873562 8.99983 -0.0873562 8.99983 -0.0873562C8.99983 -0.0873562 8.99983 -0.0873562 8.99983 -0.0873562C8.99983 -0.0873562 8.99983 -0.0873562 8.99982 -0.0873562H8.99982C8.99982 -0.0873562 8.99982 -0.0873562 8.99982 -0.0873562C8.99982 -0.0873562 8.99982 -0.0873562 8.99982 -0.0873562C8.99982 -0.0873562 8.99982 -0.0873562 8.99982 -0.0873562H8.99982C8.99982 -0.0873562 8.99982 -0.0873562 8.99982 -0.0873562C8.99982 -0.0873562 8.99982 -0.0873562 8.99982 -0.0873562C8.99982 -0.0873562 8.99982 -0.0873562 8.99982 -0.0873562H8.99982C8.99981 -0.0873562 8.99981 -0.0873562 8.99981 -0.0873562C8.99981 -0.0873562 8.99981 -0.0873562 8.99981 -0.0873562C8.99981 -0.0873562 8.99981 -0.0873562 8.99981 -0.0873562H8.99981C8.99981 -0.0873562 8.99981 -0.0873562 8.99981 -0.0873562C8.99981 -0.0873562 8.99981 -0.0873562 8.99981 -0.0873562H8.99981H8.99981C8.99981 -0.0873562 8.99981 -0.0873562 8.99981 -0.0873562C8.99981 -0.0873562 8.99981 -0.0873562 8.99981 -0.0873562H8.99981H8.9998C8.9998 -0.0873562 8.9998 -0.0873562 8.9998 -0.0873562C8.9998 -0.0873562 8.9998 -0.0873562 8.9998 -0.0873562H8.9998C8.9998 -0.0873562 8.9998 -0.0873562 8.9998 -0.0873562C8.9998 -0.0873562 8.9998 -0.0873562 8.9998 -0.0873562C8.9998 -0.0873562 8.9998 -0.0873562 8.9998 -0.0873562H8.9998C8.9998 -0.0873562 8.9998 -0.0873562 8.9998 -0.0873562C8.9998 -0.0873562 8.9998 -0.0873562 8.9998 -0.0873562C8.9998 -0.0873562 8.9998 -0.0873562 8.99979 -0.0873562H8.99979C8.99979 -0.0873562 8.99979 -0.0873562 8.99979 -0.0873562C8.99979 -0.0873562 8.99979 -0.0873562 8.99979 -0.0873562C8.99979 -0.0873562 8.99979 -0.0873562 8.99979 -0.0873562H8.99979C8.99979 -0.0873562 8.99979 -0.0873562 8.99979 -0.0873562C8.99979 -0.0873562 8.99979 -0.0873562 8.99979 -0.0873562C8.99979 -0.0873562 8.99979 -0.0873562 8.99979 -0.0873562H8.99979C8.99979 -0.0873562 8.99979 -0.0873562 8.99979 -0.0873562C8.99979 -0.0873562 8.99979 -0.0873562 8.99978 -0.0873562C8.99978 -0.0873562 8.99978 -0.0873562 8.99978 -0.0873562H8.99978C8.99978 -0.0873562 8.99978 -0.0873562 8.99978 -0.0873562C8.99978 -0.0873562 8.99978 -0.0873562 8.99978 -0.0873562H8.99978H8.99978C8.99978 -0.0873562 8.99978 -0.0873562 8.99978 -0.0873562C8.99978 -0.0873562 8.99978 -0.0873562 8.99978 -0.0873562H8.99978H8.99977C8.99977 -0.0873562 8.99977 -0.0873562 8.99977 -0.0873562C8.99977 -0.0873562 8.99977 -0.0873562 8.99977 -0.0873562H8.99977C8.99977 -0.0873562 8.99977 -0.0873562 8.99977 -0.0873562C8.99977 -0.0873562 8.99977 -0.0873562 8.99977 -0.0873562C8.99977 -0.0873562 8.99977 -0.0873562 8.99977 -0.0873562H8.99977C8.99977 -0.0873562 8.99977 -0.0873562 8.99977 -0.0873562C8.99977 -0.0873562 8.99977 -0.0873562 8.99977 -0.0873562C8.99977 -0.0873562 8.99977 -0.0873562 8.99977 -0.0873562H8.99976C8.99976 -0.0873562 8.99976 -0.0873562 8.99976 -0.0873562C8.99976 -0.0873562 8.99976 -0.0873562 8.99976 -0.0873562C8.99976 -0.0873562 8.99976 -0.0873562 8.99976 -0.0873562H8.99976C8.99976 -0.0873562 8.99976 -0.0873562 8.99976 -0.0873562C8.99976 -0.0873562 8.99976 -0.0873562 8.99976 -0.0873562C8.99976 -0.0873562 8.99976 -0.0873562 8.99976 -0.0873562H8.99976C8.99976 -0.0873562 8.99976 -0.0873562 8.99976 -0.0873562C8.99976 -0.0873562 8.99976 -0.0873562 8.99975 -0.0873562H8.99975H8.99975C8.99975 -0.0873562 8.99975 -0.0873562 8.99975 -0.0873562C8.99975 -0.0873562 8.99975 -0.0873562 8.99975 -0.0873562H8.99975H8.99975C8.99975 -0.0873562 8.99975 -0.0873562 8.99975 -0.0873562C8.99975 -0.0873562 8.99975 -0.0873562 8.99975 -0.0873562H8.99975H8.99975C8.99974 -0.0873562 8.99974 -0.0873562 8.99974 -0.0873562C8.99974 -0.0873562 8.99974 -0.0873562 8.99974 -0.0873562H8.99974C8.99974 -0.0873562 8.99974 -0.0873562 8.99974 -0.0873562C8.99974 -0.0873562 8.99974 -0.0873562 8.99974 -0.0873562C8.99974 -0.0873562 8.99974 -0.0873562 8.99974 -0.0873562H8.99974C8.99974 -0.0873562 8.99974 -0.0873562 8.99974 -0.0873562C8.99974 -0.0873562 8.99974 -0.0873562 8.99974 -0.0873562C8.99974 -0.0873562 8.99974 -0.0873562 8.99974 -0.0873562H8.99973C8.99973 -0.0873562 8.99973 -0.0873562 8.99973 -0.0873562C8.99973 -0.0873562 8.99973 -0.0873562 8.99973 -0.0873562C8.99973 -0.0873562 8.99973 -0.0873562 8.99973 -0.0873562H8.99973C8.99973 -0.0873562 8.99973 -0.0873562 8.99973 -0.0873562C8.99973 -0.0873562 8.99973 -0.0873562 8.99973 -0.0873562C8.99973 -0.0873562 8.99973 -0.0873562 8.99973 -0.0873562H8.99973C8.99973 -0.0873562 8.99973 -0.0873562 8.99973 -0.0873562C8.99973 -0.0873562 8.99973 -0.0873562 8.99973 -0.0873562H8.99972H8.99972C8.99972 -0.0873562 8.99972 -0.0873562 8.99972 -0.0873562V0.0873562Z" fill="black" fill-opacity="0.5" mask="url(#path-1-inside-1_968_10760)"/>
</g>
<g id="Subtract_2">
<mask id="path-3-inside-2_968_10760" fill="white">
<path fill-rule="evenodd" clip-rule="evenodd" d="M9 18L9 0.000170541C9.00009 0.000170541 9.00018 0.000170541 9.00028 0.000170541C13.9707 0.000170106 18 4.02957 18 9.00008C18 13.9706 13.9707 18 9.00028 18C9.00019 18 9.00009 18 9 18Z"/>
</mask>
<path fill-rule="evenodd" clip-rule="evenodd" d="M9 18L9 0.000170541C9.00009 0.000170541 9.00018 0.000170541 9.00028 0.000170541C13.9707 0.000170106 18 4.02957 18 9.00008C18 13.9706 13.9707 18 9.00028 18C9.00019 18 9.00009 18 9 18Z" fill="#484848"/>
<path d="M9 0.000170541L9 -0.087186L8.91264 -0.087186L8.91264 0.000170548L9 0.000170541ZM9 18L8.91265 18L8.91265 18.0874L9 18.0874L9 18ZM8.91264 0.000170548L8.91265 18L9.08736 18L9.08736 0.000170533L8.91264 0.000170548ZM9 0.0875271C9.00005 0.0875271 9.00009 0.0875271 9.00014 0.0875271C9.00018 0.0875271 9.00023 0.0875271 9.00028 0.0875271L9.00028 -0.087186C9.00023 -0.087186 9.00018 -0.087186 9.00014 -0.087186C9.00009 -0.087186 9.00005 -0.087186 9 -0.087186L9 0.0875271ZM9.00028 0.0875271C13.9224 0.0875267 17.9126 4.07781 17.9126 9.00008L18.0874 9.00008C18.0874 3.98133 14.0189 -0.0871865 9.00028 -0.087186L9.00028 0.0875271ZM17.9126 9.00008C17.9126 13.9224 13.9224 17.9126 9.00028 17.9126L9.00028 18.0874C14.0189 18.0874 18.0874 14.0188 18.0874 9.00008L17.9126 9.00008ZM9.00028 17.9126C9.00023 17.9126 9.00019 17.9126 9.00014 17.9126C9.00009 17.9126 9.00005 17.9126 9 17.9126L9 18.0874C9.00005 18.0874 9.00009 18.0874 9.00014 18.0874C9.00019 18.0874 9.00023 18.0874 9.00028 18.0874L9.00028 17.9126Z" fill="black" fill-opacity="0.5" mask="url(#path-3-inside-2_968_10760)"/>
</g>
</g>
</svg>
