<svg width="16" height="16" viewBox="0 0 16 16" fill="none" xmlns="http://www.w3.org/2000/svg">
<path d="M8.00065 1.3335C5.42065 1.3335 3.33398 3.42016 3.33398 6.00016C3.33398 9.50016 8.00065 14.6668 8.00065 14.6668C8.00065 14.6668 12.6673 9.50016 12.6673 6.00016C12.6673 3.42016 10.5807 1.3335 8.00065 1.3335ZM4.66732 6.00016C4.66732 4.16016 6.16065 2.66683 8.00065 2.66683C9.84065 2.66683 11.334 4.16016 11.334 6.00016C11.334 7.92016 9.41398 10.7935 8.00065 12.5868C6.61398 10.8068 4.66732 7.90016 4.66732 6.00016Z" fill="#D00029"/>
<path d="M8.00065 7.66683C8.92113 7.66683 9.66732 6.92064 9.66732 6.00016C9.66732 5.07969 8.92113 4.3335 8.00065 4.3335C7.08018 4.3335 6.33398 5.07969 6.33398 6.00016C6.33398 6.92064 7.08018 7.66683 8.00065 7.66683Z" fill="#D00029"/>
</svg>
