<svg width="16" height="16" viewBox="0 0 16 16" fill="none" xmlns="http://www.w3.org/2000/svg">
<path d="M8.00016 1.3335C5.42016 1.3335 3.3335 3.42016 3.3335 6.00016C3.3335 9.50016 8.00016 14.6668 8.00016 14.6668C8.00016 14.6668 12.6668 9.50016 12.6668 6.00016C12.6668 3.42016 10.5802 1.3335 8.00016 1.3335ZM4.66683 6.00016C4.66683 4.16016 6.16016 2.66683 8.00016 2.66683C9.84016 2.66683 11.3335 4.16016 11.3335 6.00016C11.3335 7.92016 9.4135 10.7935 8.00016 12.5868C6.6135 10.8068 4.66683 7.90016 4.66683 6.00016Z" fill="#D00029"/>
<path d="M8.00016 7.66683C8.92064 7.66683 9.66683 6.92064 9.66683 6.00016C9.66683 5.07969 8.92064 4.3335 8.00016 4.3335C7.07969 4.3335 6.3335 5.07969 6.3335 6.00016C6.3335 6.92064 7.07969 7.66683 8.00016 7.66683Z" fill="#D00029"/>
</svg>
